<svg width="148" height="148" viewBox="0 0 148 148" fill="none" xmlns="http://www.w3.org/2000/svg">
<circle cx="74.2626" cy="74.2625" r="54.5" transform="rotate(70 74.2626 74.2625)" fill="#C4C4C4" stroke="white" stroke-width="6"/>
<path fill-rule="evenodd" clip-rule="evenodd" d="M45.7179 118.567C58.9266 127.097 75.8338 129.56 91.7488 123.767C118.736 113.945 132.65 84.1053 122.828 57.1184C113.005 30.1316 83.1656 16.217 56.1787 26.0394C53.7066 26.9392 51.3442 28.007 49.0997 29.2251C48.8216 36.3813 49.381 44.3629 52.9282 50.9303C56.6703 57.8585 63.8832 63.4689 77.8 64.6074C83.225 65.0512 86.9514 67.1608 89.1791 70.4473C91.3639 73.6705 91.9444 77.7889 91.6248 81.9707C90.9873 90.3131 86.7122 99.6737 82.5948 105.034C82.4893 105.171 82.3751 105.315 82.2526 105.464L81.6195 106.171L81.1777 106.678C78.2887 109.742 72.907 114.12 65.9589 116.859C60.1446 119.151 53.2014 120.304 45.7179 118.567Z" fill="#5881D8"/>
<path fill-rule="evenodd" clip-rule="evenodd" d="M46.0482 31.0187C30.3772 40.9662 21.274 58.5893 21.9888 76.9181C22.8097 75.8348 23.7584 74.8845 24.8367 74.0936C28.2305 71.6046 32.5481 70.96 37.2831 72.2453C41.1193 73.2866 44.0827 74.3006 46.5444 75.152L46.7941 75.2384C49.165 76.0588 50.9556 76.6783 52.6895 77.0706C56.0394 77.8285 59.3162 77.7726 65.8713 75.7233C72.8925 73.5282 76.7825 71.4358 80.9754 68.197C79.9656 67.9066 78.8304 67.7017 77.5555 67.5974C62.8031 66.3905 54.5914 60.3221 50.2886 52.3559C46.6951 45.7028 45.9336 37.9094 46.0482 31.0187ZM60.4964 98.4528C56.008 95.0379 52.7334 89.4484 51.2729 81.8745C51.3774 81.8994 51.4818 81.9237 51.5862 81.9473C56.072 82.9623 60.5047 82.6313 67.5805 80.4192C76.088 77.7595 80.3593 75.192 85.6566 70.86C86.0481 71.2585 86.393 71.6837 86.6959 72.1306C88.3533 74.5757 88.9257 77.9193 88.6336 81.742C88.1035 88.6783 84.7731 96.5573 81.3106 101.683C72.6102 103.851 65.5632 102.308 60.4964 98.4528Z" fill="#91DC47"/>
<path d="M71.7595 50.098C72.9873 53.4713 76.7172 55.2106 80.0906 53.9828C83.464 52.755 85.2033 49.0251 83.9755 45.6517C82.7477 42.2783 79.0177 40.539 75.6443 41.7668C72.271 42.9946 70.5317 46.7246 71.7595 50.098Z" fill="white"/>
<path fill-rule="evenodd" clip-rule="evenodd" d="M35.9339 114.654C50.5855 128.65 72.4455 133.986 92.7748 126.586C121.319 116.197 136.036 84.6361 125.647 56.0923C115.258 27.5485 83.6964 12.8312 55.1526 23.2203C30.523 32.1847 16.1878 56.9129 19.3939 81.8642L19.6291 83.5057L19.9854 85.4963C20.5292 88.2491 21.291 90.9955 22.2806 93.7145C25.2063 101.753 29.8109 108.694 35.5544 114.288C35.7241 114.453 35.7863 114.569 35.9339 114.654ZM45.7178 118.567C58.9266 127.097 75.8338 129.56 91.7488 123.767C118.736 113.945 132.65 84.1052 122.828 57.1183C113.005 30.1315 83.1655 16.217 56.1787 26.0394C53.7066 26.9391 51.3442 28.0069 49.0996 29.225C48.8215 36.3812 49.3809 44.3628 52.9281 50.9302C56.6702 57.8584 63.8831 63.4688 77.8 64.6073C83.225 65.0512 86.9513 67.1607 89.1791 70.4473C91.3639 73.6704 91.9444 77.7889 91.6248 81.9706C90.9872 90.313 86.7122 99.6737 82.5948 105.034C82.4892 105.171 82.3751 105.315 82.2525 105.464L81.6194 106.171L81.1777 106.678C78.2887 109.742 72.907 114.12 65.9589 116.859C60.1445 119.151 53.2013 120.304 45.7178 118.567ZM46.0481 31.0186C30.3771 40.9662 21.2739 58.5893 21.9888 76.9181C22.8096 75.8348 23.7583 74.8845 24.8367 74.0936C28.2304 71.6046 32.5481 70.96 37.2831 72.2453C41.1193 73.2865 44.0826 74.3005 46.5443 75.152L46.794 75.2384C49.1649 76.0587 50.9556 76.6783 52.6895 77.0706C56.0393 77.8285 59.3161 77.7726 65.8712 75.7232C72.8924 73.5282 76.7824 71.4358 80.9753 68.197C79.9656 67.9065 78.8303 67.7017 77.5554 67.5974C62.8031 66.3905 54.5913 60.3221 50.2886 52.3559C46.695 45.7027 45.9335 37.9094 46.0481 31.0186ZM25.0997 92.6884C24.3075 90.5119 23.6697 88.3169 23.1808 86.1153C23.9325 82.235 25.7704 79.6094 27.7937 78.1255C29.7547 76.6873 32.4424 76.1122 35.9733 77.0706C39.6393 78.0657 42.4718 79.034 44.9099 79.8773L45.2861 80.0075C45.5052 80.0834 45.7224 80.1586 45.9375 80.2329C47.2679 89.9186 51.2026 97.6645 57.4689 102.432C62.507 106.265 68.8139 107.992 75.9569 107.45C73.1872 109.751 69.3841 112.284 64.8586 114.068C57.324 117.038 45.4413 119.338 37.7459 112.233C32.2708 106.929 27.8821 100.333 25.0997 92.6884ZM60.4963 98.4528C56.008 95.0379 52.7333 89.4484 51.2728 81.8745C51.3773 81.8994 51.4817 81.9237 51.5861 81.9473C56.0719 82.9623 60.2874 82.7075 67.3631 80.4955C75.8707 77.8358 80.3592 75.192 85.6565 70.86C86.0481 71.2585 86.3929 71.6836 86.6958 72.1305C88.3533 74.5757 88.9257 77.9192 88.6335 81.742C88.1034 88.6782 84.773 96.5573 81.3105 101.683C72.6102 103.851 65.5631 102.308 60.4963 98.4528Z" fill="white"/>
<path d="M71.7595 50.098C72.9873 53.4713 76.7172 55.2106 80.0906 53.9828C83.464 52.755 85.2033 49.0251 83.9755 45.6517C82.7477 42.2783 79.0177 40.539 75.6443 41.7668C72.271 42.9946 70.5317 46.7246 71.7595 50.098Z" fill="white"/>
<path fill-rule="evenodd" clip-rule="evenodd" d="M35.9339 114.654C50.5855 128.65 72.4455 133.986 92.7748 126.586C121.319 116.197 136.036 84.6361 125.647 56.0923C115.258 27.5485 83.6964 12.8312 55.1526 23.2203C30.523 32.1847 16.1878 56.9129 19.3939 81.8642L19.6291 83.5057L19.9854 85.4963C20.5292 88.2491 21.291 90.9955 22.2806 93.7145C25.2063 101.753 29.8109 108.694 35.5544 114.288C35.7241 114.453 35.7863 114.569 35.9339 114.654ZM45.7178 118.567C58.9266 127.097 75.8338 129.56 91.7488 123.767C118.736 113.945 132.65 84.1052 122.828 57.1183C113.005 30.1315 83.1655 16.217 56.1787 26.0394C53.7066 26.9391 51.3442 28.0069 49.0996 29.225C48.8215 36.3812 49.3809 44.3628 52.9281 50.9302C56.6702 57.8584 63.8831 63.4688 77.8 64.6073C83.225 65.0512 86.9513 67.1607 89.1791 70.4473C91.3639 73.6704 91.9444 77.7889 91.6248 81.9706C90.9872 90.313 86.7122 99.6737 82.5948 105.034C82.4892 105.171 82.3751 105.315 82.2525 105.464L81.6194 106.171L81.1777 106.678C78.2887 109.742 72.907 114.12 65.9589 116.859C60.1445 119.151 53.2013 120.304 45.7178 118.567ZM46.0481 31.0186C30.3771 40.9662 21.2739 58.5893 21.9888 76.9181C22.8096 75.8348 23.7583 74.8845 24.8367 74.0936C28.2304 71.6046 32.5481 70.96 37.2831 72.2453C41.1193 73.2865 44.0826 74.3005 46.5443 75.152L46.794 75.2384C49.1649 76.0587 50.9556 76.6783 52.6895 77.0706C56.0393 77.8285 59.3161 77.7726 65.8712 75.7232C72.8924 73.5282 76.7824 71.4358 80.9753 68.197C79.9656 67.9065 78.8303 67.7017 77.5554 67.5974C62.8031 66.3905 54.5913 60.3221 50.2886 52.3559C46.695 45.7027 45.9335 37.9094 46.0481 31.0186ZM25.0997 92.6884C24.3075 90.5119 23.6697 88.3169 23.1808 86.1153C23.9325 82.235 25.7704 79.6094 27.7937 78.1255C29.7547 76.6873 32.4424 76.1122 35.9733 77.0706C39.6393 78.0657 42.4718 79.034 44.9099 79.8773L45.2861 80.0075C45.5052 80.0834 45.7224 80.1586 45.9375 80.2329C47.2679 89.9186 51.2026 97.6645 57.4689 102.432C62.507 106.265 68.8139 107.992 75.9569 107.45C73.1872 109.751 69.3841 112.284 64.8586 114.068C57.324 117.038 45.4413 119.338 37.7459 112.233C32.2708 106.929 27.8821 100.333 25.0997 92.6884ZM60.4963 98.4528C56.008 95.0379 52.7333 89.4484 51.2728 81.8745C51.3773 81.8994 51.4817 81.9237 51.5861 81.9473C56.0719 82.9623 60.2874 82.7075 67.3631 80.4955C75.8707 77.8358 80.3592 75.192 85.6565 70.86C86.0481 71.2585 86.3929 71.6836 86.6958 72.1305C88.3533 74.5757 88.9257 77.9192 88.6335 81.742C88.1034 88.6782 84.773 96.5573 81.3105 101.683C72.6102 103.851 65.5631 102.308 60.4963 98.4528Z" fill="white"/>
<path d="M88.6335 81.7421C88.1034 88.6784 84.7731 96.5574 81.3105 101.683C72.6102 103.851 66.9661 102.459 62.95 100.196C78.2982 102.835 83.8631 98.6822 88.6335 81.7421Z" fill="#EAE349"/>
<path fill-rule="evenodd" clip-rule="evenodd" d="M25.0997 92.6885C24.3076 90.512 23.6698 88.3169 23.1808 86.1153C23.9325 82.235 25.7705 79.6094 27.7938 78.1255C29.7547 76.6873 32.4425 76.1123 35.9733 77.0707C39.6394 78.0658 42.4719 79.0341 44.9099 79.8774L45.2861 80.0076C45.5052 80.0834 45.7224 80.1586 45.9376 80.2329C47.268 89.9186 51.2026 97.6645 57.4689 102.432C62.5071 106.265 68.8139 107.992 75.957 107.45C73.1872 109.751 69.3841 112.284 64.8586 114.068C57.3241 117.038 45.4413 119.338 37.7459 112.233C32.2708 106.929 27.8822 100.333 25.0997 92.6885Z" fill="#63B132"/>
<circle cx="77.7621" cy="48.3531" r="8.35" transform="rotate(70 77.7621 48.3531)" fill="#E2DC48"/>
<path d="M74.4681 47.0512C75.4126 49.6461 78.2818 50.984 80.8767 50.0396C83.4716 49.0951 84.8095 46.2259 83.8651 43.631C82.9206 41.0361 80.0514 39.6982 77.4565 40.6426C74.8616 41.5871 73.5237 44.4563 74.4681 47.0512Z" fill="white"/>
</svg>
